<?xml version="1.0" encoding="utf-8"?>
<!-- Generator: Adobe Illustrator 27.2.0, SVG Export Plug-In . SVG Version: 6.00 Build 0)  -->
<svg version="1.1" id="Layer_1" xmlns="http://www.w3.org/2000/svg" xmlns:xlink="http://www.w3.org/1999/xlink" x="0px" y="0px"
	 viewBox="0 0 63 63" style="enable-background:new 0 0 63 63;" xml:space="preserve">
<style type="text/css">
	.st0{fill:none;}
	.st1{fill-rule:evenodd;clip-rule:evenodd;fill:#707070;}
</style>
<path class="st0" d="M31.5,6.1L31.5,6.1c14,0,25.4,11.4,25.4,25.4l0,0c0,14-11.4,25.4-25.4,25.4l0,0c-14,0-25.4-11.4-25.4-25.4l0,0
	C6.1,17.5,17.5,6.1,31.5,6.1z"/>
<g>
	<path class="st1" d="M38,19.5c3.4,0,6.2,2.8,6.2,6.2V38c0,3.4-2.8,6.2-6.2,6.2H25.8c-3.4,0-6.2-2.8-6.2-6.2V25.8
		c0-3.4,2.8-6.2,6.2-6.2L38,19.5L38,19.5z M38,22.2H25.8c-2,0-3.5,1.6-3.5,3.5V38c0,2,1.6,3.5,3.5,3.5H38c2,0,3.5-1.6,3.5-3.5V25.8
		C41.6,23.8,40,22.2,38,22.2L38,22.2z"/>
	<path class="st1" d="M31.9,25.5c3.5,0,6.4,2.9,6.4,6.4c0,3.5-2.9,6.4-6.4,6.4c-3.5,0-6.4-2.9-6.4-6.4
		C25.5,28.4,28.4,25.5,31.9,25.5z M31.9,28.2c-2,0-3.7,1.6-3.7,3.7c0,2,1.6,3.7,3.7,3.7c2,0,3.7-1.6,3.7-3.7
		C35.6,29.9,33.9,28.2,31.9,28.2z M38.5,26.9c-0.8,0-1.5-0.7-1.5-1.5c0-0.8,0.8-1.5,1.6-1.4c0.8,0,1.4,0.7,1.4,1.4
		C40,26.2,39.3,26.9,38.5,26.9z"/>
</g>
</svg>
