<?xml version="1.0" encoding="utf-8"?>
<!-- Generator: Adobe Illustrator 27.2.0, SVG Export Plug-In . SVG Version: 6.00 Build 0)  -->
<svg version="1.1" id="Layer_1" xmlns="http://www.w3.org/2000/svg" xmlns:xlink="http://www.w3.org/1999/xlink" x="0px" y="0px"
	 viewBox="0 0 63 63" style="enable-background:new 0 0 63 63;" xml:space="preserve">
<style type="text/css">
	.st0{fill:#FFFFFF;stroke:#707070;stroke-width:1.3855;stroke-miterlimit:10;}
	.st1{fill:#FFFFFF;stroke:#CBCACB;stroke-width:0.9729;stroke-miterlimit:10;}
	.st2{fill:#707070;}
</style>
<g>
	<path class="st0" d="M43.6,44.2h-5.3c-2.1,0-3.7-1.7-3.7-3.7V30.1c0-2.1,1.7-3.7,3.7-3.7h5.3c2.1,0,3.7,1.7,3.7,3.7v10.4
		C47.4,42.6,45.7,44.2,43.6,44.2z"/>
	<path class="st0" d="M43.6,44.2h-0.4c-2.1,0-3.7-1.7-3.7-3.7V30.1c0-2.1,1.7-3.7,3.7-3.7h0.4c2.1,0,3.7,1.7,3.7,3.7v10.4
		C47.4,42.6,45.7,44.2,43.6,44.2z"/>
	<path class="st1" d="M34.3,40.1h-10c-2.1,0-3.7-1.7-3.7-3.7V26c0-2.1,1.7-3.7,3.7-3.7h10c2.1,0,3.7,1.7,3.7,3.7v10.4
		C38.2,38.4,36.4,40.1,34.3,40.1z"/>
	<path class="st2" d="M37.8,18.1h-19c-1.7,0-3.2,1.2-3.2,2.6v21.6c0,1.5,1.4,2.6,3.2,2.6h19c1.7,0,3.2-1.2,3.2-2.6V20.7
		C41,19.3,39.6,18.1,37.8,18.1z M34.5,36.9c-0.7,0.7-1.7,1.1-2.5,1.2c-1,0.1-1.8,0.3-2.6,0.3c-2.5,0-4.4-0.6-5.8-1.7
		c-1.4-1.1-2.1-2.8-2.1-5s0.7-3.9,1.9-5.1c1.2-1.2,3.2-1.8,5.8-1.8c1.1,0,1.9,0.1,2.6,0.3c0.7,0.1,1.4,0.4,2.2,0.7L33.5,28
		c-0.7-0.3-1.4-0.4-2.1-0.7c-0.7-0.1-1.2-0.3-1.9-0.3c-1.5,0-2.8,0.4-3.5,1.2c-0.7,0.8-1.1,1.9-1.1,3.5c0,0.6,0.1,1.2,0.3,1.8
		c0.1,0.6,0.4,1,0.8,1.4c0.4,0.4,0.8,0.7,1.4,1c0.6,0.3,1.2,0.3,2.1,0.3c0.3,0,0.6,0,1-0.1c0.4,0,0.8-0.1,1.1-0.3v-3h-3v-1.9h4.3
		c0.4,0,0.7,0,1,0.1c0.3,0.1,0.4,0.3,0.6,0.4c0.1,0.1,0.1,0.4,0.3,0.7c0,0.3,0,0.6,0,0.8v4H34.5z"/>
</g>
</svg>
