<?xml version="1.0" encoding="utf-8"?>
<!-- Generator: Adobe Illustrator 27.2.0, SVG Export Plug-In . SVG Version: 6.00 Build 0)  -->
<svg version="1.1" id="Layer_1" xmlns="http://www.w3.org/2000/svg" xmlns:xlink="http://www.w3.org/1999/xlink" x="0px" y="0px"
	 viewBox="0 0 63 63" style="enable-background:new 0 0 63 63;" xml:space="preserve">
<style type="text/css">
	.st0{fill:none;}
	.st1{fill-rule:evenodd;clip-rule:evenodd;fill:#707070;}
</style>
<path class="st0" d="M31.5,7.6L31.5,7.6c13.2,0,23.9,10.7,23.9,23.9l0,0c0,13.2-10.7,23.9-23.9,23.9l0,0
	c-13.2,0-23.9-10.7-23.9-23.9l0,0C7.6,18.3,18.3,7.6,31.5,7.6z"/>
<path class="st1" d="M44.5,29.7c0-0.7-0.1-1.3-0.1-2c-0.1-0.7-0.2-1.4-0.3-2.1c-0.1-0.7-0.5-1.3-1-1.8c-0.5-0.5-1.1-0.8-1.8-0.8
	c-2.1-0.2-5.2-0.4-9.4-0.4s-7.4,0.1-9.4,0.4c-0.7,0.1-1.3,0.4-1.7,0.8c-0.5,0.5-0.8,1.1-1,1.8c-0.2,0.7-0.3,1.4-0.3,2.1
	c-0.1,0.8-0.1,1.4-0.1,2c0,0.5,0,1.2,0,2.2c0,0.9,0,1.6,0,2.2c0,0.5,0,1.2,0.1,2c0.1,0.8,0.2,1.5,0.3,2.1c0.2,0.7,0.5,1.3,1,1.8
	c0.5,0.5,1.1,0.8,1.8,0.8c2.1,0.2,5.2,0.4,9.4,0.4s7.4-0.1,9.4-0.4c0.7-0.1,1.3-0.4,1.7-0.8c0.5-0.5,0.8-1.1,1-1.8
	c0.1-0.6,0.2-1.3,0.3-2.1c0.1-0.8,0.1-1.4,0.1-2c0-0.5,0-1.2,0-2.2C44.5,31,44.5,30.2,44.5,29.7L44.5,29.7z M36.9,32.7l-7.2,4.6
	c-0.1,0.1-0.3,0.1-0.5,0.1c-0.2,0-0.3,0-0.4-0.1c-0.3-0.2-0.5-0.5-0.5-0.8v-9.2c0-0.4,0.2-0.6,0.5-0.8c0.3-0.2,0.6-0.2,0.9,0
	l7.2,4.6c0.3,0.2,0.4,0.4,0.4,0.8C37.3,32.2,37.1,32.5,36.9,32.7z"/>
</svg>
