<?xml version="1.0" encoding="utf-8"?>
<!-- Generator: Adobe Illustrator 27.2.0, SVG Export Plug-In . SVG Version: 6.00 Build 0)  -->
<svg version="1.1" id="Layer_1" xmlns="http://www.w3.org/2000/svg" xmlns:xlink="http://www.w3.org/1999/xlink" x="0px" y="0px"
	 viewBox="0 0 63 63" style="enable-background:new 0 0 63 63;" xml:space="preserve">
<style type="text/css">
	.st0{fill:none;}
	.st1{fill-rule:evenodd;clip-rule:evenodd;fill:#707070;}
</style>
<path class="st0" d="M31.5,7.5L31.5,7.5c13.3,0,24,10.7,24,24l0,0c0,13.3-10.7,24-24,24l0,0c-13.3,0-24-10.7-24-24l0,0
	C7.5,18.2,18.2,7.5,31.5,7.5z"/>
<path class="st1" d="M38.6,19.6H24.2c-1.2,0-2.2,0.4-3.1,1.3c-0.8,0.8-1.3,1.9-1.3,3.1v14.5c0,1.2,0.4,2.2,1.3,3.1
	c0.8,0.9,1.9,1.3,3.1,1.3h14.4c1.2,0,2.2-0.4,3.1-1.3c0.8-0.8,1.3-1.9,1.3-3.1V24c0-1.2-0.4-2.2-1.3-3.1
	C40.8,20,39.8,19.6,38.6,19.6L38.6,19.6z M39.5,31.5h-2.6v9.6h-3.9v-9.6h-2v-3.3h2v-2c0-1.4,0.3-2.5,1-3.2c0.7-0.7,1.7-1.1,3.3-1.1
	h2.6v3.3h-1.6c-0.6,0-0.9,0.1-1.1,0.3c-0.2,0.2-0.2,0.5-0.2,1v1.6h3L39.5,31.5L39.5,31.5z"/>
</svg>
